<?xml version="1.0" standalone="no"?>
<!DOCTYPE svg PUBLIC "-//W3C//DTD SVG 1.1//EN" "http://www.w3.org/Graphics/SVG/1.1/DTD/svg11.dtd">
<svg class="icon" width="200px" height="200.00px" viewBox="0 0 1024 1024" version="1.1" xmlns="http://www.w3.org/2000/svg"><path
  fill="#ffffff"
  d="M611.584 185.6a32 32 0 0 1 3.2512 63.8464l-3.2768 0.1536H320a70.4 70.4 0 0 0-70.272 66.0992l-0.128 4.3008v384a70.4 70.4 0 0 0 66.0992 70.272l4.3008 0.128h384a70.4 70.4 0 0 0 70.272-66.0992l0.128-4.3008V512a32 32 0 0 1 63.8464-3.2768l0.1536 3.2768v192a134.4 134.4 0 0 1-128.8704 134.2976l-5.5296 0.1024h-384a134.4 134.4 0 0 1-134.2976-128.8704L185.6 704v-384a134.4 134.4 0 0 1 128.8704-134.2976l5.5296-0.1024h291.584zM743.04 308.0192a32 32 0 0 1 48.6144 41.5232l-2.2784 2.6368L520.192 634.6752a32 32 0 0 1-43.264 2.816l-2.6624-2.4064-122.112-123.4432a32 32 0 0 1 42.9312-47.36l2.56 2.3552 98.9184 99.9936 246.4768-258.6112z"/></svg>
