<?xml version="1.0" standalone="no"?><!DOCTYPE svg PUBLIC "-//W3C//DTD SVG 1.1//EN" "http://www.w3.org/Graphics/SVG/1.1/DTD/svg11.dtd"><svg t="1660389016112" class="icon" viewBox="0 0 1024 1024" version="1.1" xmlns="http://www.w3.org/2000/svg" p-id="4041" xmlns:xlink="http://www.w3.org/1999/xlink" width="200" height="200"><defs><style type="text/css">@font-face { font-family: feedback-iconfont; src: url("//at.alicdn.com/t/font_1031158_u69w8yhxdu.woff2?t=1630033759944") format("woff2"), url("//at.alicdn.com/t/font_1031158_u69w8yhxdu.woff?t=1630033759944") format("woff"), url("//at.alicdn.com/t/font_1031158_u69w8yhxdu.ttf?t=1630033759944") format("truetype"); }
</style></defs><path d="M891.072 822.144V167.36a34.432 34.432 0 0 0-34.432-34.432H201.856C201.856 94.848 232.704 64 270.784 64h620.288C929.152 64 960 94.848 960 132.928v620.288c0 38.08-30.848 68.928-68.928 68.928z m-68.928-551.36v620.288c0 38.08-30.848 68.928-68.928 68.928H132.928A68.928 68.928 0 0 1 64 891.072V270.784c0-38.08 30.848-68.928 68.928-68.928h620.288c38.08 0 68.928 30.848 68.928 68.928z m-137.856 137.856H201.856a34.432 34.432 0 0 0 0 68.864h482.432a34.432 34.432 0 0 0 0-68.864z m0 206.72H201.856a34.432 34.432 0 0 0 0 68.864h482.432a34.432 34.432 0 0 0 0-68.864z" p-id="4042" fill="#1296db"></path></svg>