<?xml version="1.0" standalone="no"?><!DOCTYPE svg PUBLIC "-//W3C//DTD SVG 1.1//EN" "http://www.w3.org/Graphics/SVG/1.1/DTD/svg11.dtd"><svg t="1660895208546" class="icon" viewBox="0 0 1024 1024" version="1.1" xmlns="http://www.w3.org/2000/svg" p-id="2061" xmlns:xlink="http://www.w3.org/1999/xlink" width="200" height="200"><defs><style type="text/css">@font-face { font-family: feedback-iconfont; src: url("//at.alicdn.com/t/font_1031158_u69w8yhxdu.woff2?t=1630033759944") format("woff2"), url("//at.alicdn.com/t/font_1031158_u69w8yhxdu.woff?t=1630033759944") format("woff"), url("//at.alicdn.com/t/font_1031158_u69w8yhxdu.ttf?t=1630033759944") format("truetype"); }
</style></defs><path d="M711.328 735.968l-33.792 92.8a32 32 0 0 1-60.16-21.888l130.368-358.08a31.968 31.968 0 0 1 42.016-21.888c10.208 3.712 17.376 12.096 19.968 21.856l130.336 358.08a32 32 0 0 1-60.16 21.92l-33.76-92.8H711.36z m23.264-64h88.256l-44.128-121.28L734.592 672zM234.752 576h202.496L336 297.856 234.752 576z m-23.296 64L144.64 823.648a32 32 0 0 1-60.128-21.888L303.36 200.32a32 32 0 0 1 32.64-20.96 32 32 0 0 1 32.64 20.96l218.88 601.408a32 32 0 0 1-60.16 21.888L460.576 640H211.456z" fill="#1296db" p-id="2062"></path></svg>