<?xml version="1.0" standalone="no"?><!DOCTYPE svg PUBLIC "-//W3C//DTD SVG 1.1//EN" "http://www.w3.org/Graphics/SVG/1.1/DTD/svg11.dtd"><svg t="1660717409931" class="icon" viewBox="0 0 1024 1024" version="1.1" xmlns="http://www.w3.org/2000/svg" p-id="4869" xmlns:xlink="http://www.w3.org/1999/xlink" width="200" height="200"><defs><style type="text/css">@font-face { font-family: feedback-iconfont; src: url("//at.alicdn.com/t/font_1031158_u69w8yhxdu.woff2?t=1630033759944") format("woff2"), url("//at.alicdn.com/t/font_1031158_u69w8yhxdu.woff?t=1630033759944") format("woff"), url("//at.alicdn.com/t/font_1031158_u69w8yhxdu.ttf?t=1630033759944") format("truetype"); }
</style></defs><path d="M768.1 773.8v51.9c0 3.3-2.7 6-6 6h-116c-3.3 0-6-2.7-6-6v-51.9c0-3.3 2.7-6 6-6H698c3.3 0 6-2.7 6-6V582c0-3.3-2.7-6-6-6H518.3c-3.3 0-6 2.7-6 6v179.8c0 3.3 2.7 6 6 6h51.8c3.3 0 6 2.7 6 6v51.9c0 3.3-2.7 6-6 6h-116c-3.3 0-6-2.7-6-6v-52c0-3.3-2.7-6-6-6H262.2c-3.3 0-6 2.7-6 6v179.9c0 3.3 2.7 6 6 6h179.9c3.3 0 6-2.7 6-6v-51.9c0-3.3 2.7-6 6-6h308.1c3.3 0 6 2.7 6 6v51.9c0 3.3 2.7 6 6 6h180c3.3 0 6-2.7 6-6V773.8c0-3.3-2.7-6-6-6h-180c-3.4 0-6.1 2.7-6.1 6z m-390 121.8h-51.9c-3.3 0-6-2.7-6-6v-51.9c0-3.3 2.7-6 6-6h51.9c3.3 0 6 2.7 6 6v51.9c0 3.3-2.7 6-6 6zM634 703.8h-51.8c-3.3 0-6-2.7-6-6V646c0-3.3 2.7-6 6-6H634c3.3 0 6 2.7 6 6v51.8c0 3.3-2.6 6-6 6z m256.2 191.8h-52c-3.3 0-6-2.7-6-6v-51.8c0-3.3 2.7-6 6-6h52c3.3 0 6 2.7 6 6v51.8c0 3.3-2.7 6-6 6z" p-id="4870" fill="#1296db"></path><path d="M134 127.9h436.1c3.3 0 6 2.7 6 6v180c0 3.3 2.7 6 6 6h180.2c3.3 0 6 2.7 6 6l-0.1 180.1c0 3.3 2.7 6 6 6h52c3.3 0 6-2.7 6-6l-0.9-244.8c0-3.3-2.7-6-6-6h-56.9v0.6h-0.2v-58c0-3.3-2.7-6-6-6h-52c-3.3 0-6-2.7-6-6v-52c0-3.3-2.7-6-6-6h-58V69.9c0-3.3-2.7-6-6-6H76c-6.6 0-12 5.4-12 12v871.6c0 6.6 5.4 12 12 12h109.9c3.3 0 6-2.7 6-6v-52c0-3.3-2.7-6-6-6H134c-3.3 0-6-2.7-6-6V133.9c0-3.3 2.7-6 6-6z" p-id="4871" fill="#1296db"></path><path d="M506 191.8H198c-3.3 0-6 2.7-6 6v52c0 3.3 2.7 6 6 6h308c3.3 0 6-2.7 6-6v-52c0-3.3-2.6-6-6-6zM198 384h308c3.3 0 6-2.7 6-6v-52c0-3.3-2.7-6-6-6H198c-3.3 0-6 2.7-6 6v52c0 3.3 2.7 6 6 6zM198 512.2h500.1c3.3 0 6-2.7 6-6v-52c0-3.3-2.7-6-6-6H198c-3.3 0-6 2.7-6 6v52c0 3.3 2.7 6 6 6zM442.1 576H198c-3.3 0-6 2.7-6 6v52c0 3.3 2.7 6 6 6h244c3.3 0 6-2.7 6-6v-52c0.1-3.3-2.6-6-5.9-6z" p-id="4872" fill="#1296db"></path></svg>