<?xml version="1.0" standalone="no"?><!DOCTYPE svg PUBLIC "-//W3C//DTD SVG 1.1//EN" "http://www.w3.org/Graphics/SVG/1.1/DTD/svg11.dtd"><svg t="1662632652625" class="icon" viewBox="0 0 1024 1024" version="1.1" xmlns="http://www.w3.org/2000/svg" p-id="3558" width="200" height="200" xmlns:xlink="http://www.w3.org/1999/xlink"><path d="M896.682667 436.949333a613.802667 613.802667 0 0 0-112.896-136.533333l99.413333-99.584a42.666667 42.666667 0 1 0-60.330667-60.330667l-682.666666 682.666667A42.666667 42.666667 0 1 0 200.533333 883.498667l108.16-108.16A389.930667 389.930667 0 0 0 512 832c206.08 0 329.386667-153.6 384.853333-244.906667a145.962667 145.962667 0 0 0-0.170666-150.144zM512 704a190.165333 190.165333 0 0 1-101.76-29.866667l62.848-62.890666A106.24 106.24 0 0 0 618.666667 512a24.32 24.32 0 0 0-0.426667-5.546667 42.410667 42.410667 0 0 1-20.906667 5.546667 41.472 41.472 0 0 1-19.669333-5.418667L674.133333 410.112A191.36 191.36 0 0 1 512 704z m-327.68-37.546667a610.133333 610.133333 0 0 1-56.746667-79.36 146.944 146.944 0 0 1-0.426666-150.186666C182.442667 345.6 306.176 192 512 192a397.098667 397.098667 0 0 1 117.333333 17.493333 22.485333 22.485333 0 0 1 14.933334 15.36 20.736 20.736 0 0 1-5.973334 20.053334l-80.64 80.64A199.637333 199.637333 0 0 0 512 320 192.298667 192.298667 0 0 0 320 512a184.149333 184.149333 0 0 0 5.546667 46.08l-109.653334 109.653333a20.949333 20.949333 0 0 1-15.36 6.4h-0.853333a21.333333 21.333333 0 0 1-15.530667-7.637333z" fill="#ffffff" p-id="3559"></path></svg>