<?xml version="1.0" standalone="no"?><!DOCTYPE svg PUBLIC "-//W3C//DTD SVG 1.1//EN" "http://www.w3.org/Graphics/SVG/1.1/DTD/svg11.dtd"><svg t="1660895374905" class="icon" viewBox="0 0 1024 1024" version="1.1" xmlns="http://www.w3.org/2000/svg" p-id="6123" xmlns:xlink="http://www.w3.org/1999/xlink" width="200" height="200"><defs><style type="text/css">@font-face { font-family: feedback-iconfont; src: url("//at.alicdn.com/t/font_1031158_u69w8yhxdu.woff2?t=1630033759944") format("woff2"), url("//at.alicdn.com/t/font_1031158_u69w8yhxdu.woff?t=1630033759944") format("woff"), url("//at.alicdn.com/t/font_1031158_u69w8yhxdu.ttf?t=1630033759944") format("truetype"); }
</style></defs><path d="M512 1024C76.96384 1024 0 947.022507 0 512S76.96384 0 512 0 1024 76.96384 1024 512 947.022507 1024 512 1024z m0-998.4C98.727253 25.6 25.6 98.7136 25.6 512S98.727253 998.4 512 998.4 998.4 925.272747 998.4 512 925.272747 25.6 512 25.6z" fill="#1296db" p-id="6124"></path><path d="M279.893333 785.066667c-101.034667 0-177.793707-5.270187-236.05248-21.149014C30.26944 698.69568 25.6 616.174933 25.6 512 25.6 98.7136 98.727253 25.6 512 25.6c31.402667 0 60.648107 0.49152 88.255147 1.460907C671.45728 83.367253 689.493333 187.665067 689.493333 375.466667c0 348.023467-61.576533 409.6-409.6 409.6z" fill="#1296db" opacity=".1" p-id="6125"></path><path d="M472.18688 324.07552l-80.554667-10.704213-36.0448-66.60096-36.099413 66.60096-80.554667 10.704213 58.28608 51.882667-13.68064 73.23648 72.04864-34.57024 72.04864 34.57024-13.735253-73.23648z" fill="#1296db" p-id="6126"></path><path d="M812.714667 782.336l-66.628267 39.1168c-12.588373 7.386453-22.89664-0.300373-22.89664-17.08032v-78.506667a51.514027 51.514027 0 0 1 23.442773-42.51648l65.536-33.50528c12.888747-6.608213 23.442773 1.733973 23.442774 18.51392v70.014294a55.66464 55.66464 0 0 1-22.89664 43.963733z m-2.921814-144.861867L740.010667 674.474667a56.64768 56.64768 0 0 1-47.22688 0l-72.21248-38.229334a13.312 13.312 0 0 1-0.2048-25.613653l67.447466-37.860693a54.613333 54.613333 0 0 1 47.02208-0.546134l74.943147 40.05888a12.970667 12.970667 0 0 1 0.013653 25.1904z m-116.381013-117.650773l-26.815147-30.037333-39.908693 5.010773 20.261547-34.679467-17.134934-36.427093 39.335254 8.56064 29.354666-27.538773 4.027734 40.045226 35.26656 19.401387-36.864 16.192853z m21.722453-167.44448L683.33568 327.68l-38.393173 12.151467 13.653333-37.84704-23.42912-32.768 40.236373 1.365333 23.906987-32.385707 11.18208 38.66624 38.229333 12.724907-33.286826 22.541653zM367.274667 790.801067a39.840427 39.840427 0 0 1-55.05024 10.390186l-17.312427-11.851093a39.594667 39.594667 0 0 1-10.390187-54.872747l213.947734-312.456533a39.826773 39.826773 0 0 1 55.05024-10.390187l17.353386 11.83744a39.594667 39.594667 0 0 1 10.36288 54.8864z m187.419306-343.927467l-14.158506-9.557333-3.140267-2.184534a11.004587 11.004587 0 0 0-15.428267 2.90816L493.786453 479.232l35.607894 24.234667 28.166826-41.178454a11.18208 11.18208 0 0 0-2.894506-15.428266z m9.038507-123.767467l-19.8656-3.249493-13.953707 14.513493-3.03104-19.879253-18.077013-8.833707 17.98144-9.05216 2.730667-19.879253 14.158506 14.29504 19.810987-3.536213-9.216 17.885866z m-108.270933 105.608534l-100.88448-19.797334-73.5232 71.857494-12.288-102.004054-91.067734-47.7184 93.252267-43.29472 17.257813-101.321386 69.986987 75.28448 101.730987-14.90944-50.025814 89.770666z m-22.28224-164.345174l-80.254294 12.77952-53.589333-53.507413-15.48288 74.1376-74.1376 33.286827 70.683307 33.041066 7.7824 74.069334 59.159893-53.73952 78.92992 12.520106-34.133333-66.259626zM618.33216 649.6256l65.194667 32.058027a50.681173 50.681173 0 0 1 23.606613 42.420906v79.70816c0 16.930133-10.40384 24.94464-23.087787 17.749334l-66.218666-37.382827a54.6816 54.6816 0 0 1-23.087787-43.854507V668.8768c-0.013653-16.971093 10.622293-25.627307 23.59296-19.2512z" fill="#1296db" p-id="6127"></path></svg>