<?xml version="1.0" standalone="no"?>
<!DOCTYPE svg PUBLIC "-//W3C//DTD SVG 1.1//EN" "http://www.w3.org/Graphics/SVG/1.1/DTD/svg11.dtd">
<svg class="icon" width="200px" height="200.00px" viewBox="0 0 1024 1024" version="1.1" xmlns="http://www.w3.org/2000/svg"><path fill="#ffffff" d="M896 0H128a128 128 0 0 0-128 128v768a128 128 0 0 0 128 128h768a128 128 0 0 0 128-128V128a128 128 0 0 0-128-128z m64 896a64 64 0 0 1-64 64H128a64 64 0 0 1-64-64V128a64 64 0 0 1 64-64h768a64 64 0 0 1 64 64z"/><path fill="#ffffff" d="M459.52 602.88a30.72 30.72 0 0 1-44.8 0l-128-124.8-45.44 44.8 128 128a95.36 95.36 0 0 0 135.68 0l295.68-295.68-45.44-48z"/></svg>
