<?xml version="1.0" standalone="no"?><!DOCTYPE svg PUBLIC "-//W3C//DTD SVG 1.1//EN" "http://www.w3.org/Graphics/SVG/1.1/DTD/svg11.dtd"><svg t="1659542282166" class="icon" viewBox="0 0 1024 1024" version="1.1" xmlns="http://www.w3.org/2000/svg" p-id="2262" xmlns:xlink="http://www.w3.org/1999/xlink" width="200" height="200"><defs><style type="text/css">@font-face { font-family: feedback-iconfont; src: url("//at.alicdn.com/t/font_1031158_u69w8yhxdu.woff2?t=1630033759944") format("woff2"), url("//at.alicdn.com/t/font_1031158_u69w8yhxdu.woff?t=1630033759944") format("woff"), url("//at.alicdn.com/t/font_1031158_u69w8yhxdu.ttf?t=1630033759944") format("truetype"); }
</style></defs><path d="M548 98.8h-69.9c-14.1 0-26.3 10-29 23.8L431 212.8c-2.1 10.2-9.3 18.5-19 22.1-8.2 3-16.2 6.3-24.1 10.1-4 1.8-8.3 2.8-12.8 2.8-5.8 0-11.6-1.7-16.3-5l-76.6-51.1c-11.8-7.8-27.4-6.3-37.3 3.7l-49.4 49.4c-10 10-11.6 25.6-3.7 37.3l51.1 76.6c5.7 8.7 6.6 19.7 2.1 29.1-3.7 7.9-7 15.9-10.1 24.1-3.5 9.7-11.9 17-22.1 19l-90.2 18.2c-13.8 2.8-23.8 14.9-23.8 29V548c0 14.1 10 26.3 23.8 29l90.2 18.1c10.2 2.1 18.5 9.3 22.1 19 3 8.2 6.3 16.3 10.1 24.1 4.4 9.4 3.7 20.4-2.1 29.1l-51.1 76.6c-7.8 11.7-6.3 27.4 3.7 37.3l49.4 49.4c10 10 25.6 11.6 37.3 3.7l76.6-51.1c4.9-3.2 10.6-5 16.3-5 4.4 0 8.8 1 12.8 2.8 7.9 3.7 15.9 7 24.1 10.1 9.7 3.6 17 11.9 19 22.1l18.1 90.2c2.8 13.8 14.9 23.8 29 23.8H548c14.1 0 26.3-10 29-23.8l18.1-90.2c2.1-10.2 9.3-18.5 19-22.1 8.2-3 16.3-6.3 24.1-10.1 4-1.8 8.3-2.8 12.8-2.8 5.8 0 11.6 1.7 16.3 5l76.6 51.1c11.7 7.8 27.4 6.3 37.3-3.7l49.4-49.4c10-10 11.6-25.6 3.7-37.3l-51.1-76.6c-5.7-8.7-6.6-19.7-2.2-29.1 3.7-7.9 7-15.9 10.1-24.1 3.6-9.7 11.9-17 22.1-19l90.2-18.1c13.8-2.8 23.8-14.9 23.8-29v-69.9c0-14.1-10-26.3-23.8-29L813.3 431c-10.2-2.1-18.5-9.3-22.1-19-3-8.2-6.3-16.2-10.1-24.1-4.4-9.4-3.7-20.4 2.2-29.1l51.1-76.6c7.8-11.8 6.3-27.4-3.7-37.3l-49.4-49.5c-10-10-25.6-11.6-37.3-3.7l-76.6 51.1c-4.9 3.2-10.6 5-16.3 5-4.4 0-8.8-1-12.8-2.8-7.9-3.7-15.9-7-24.1-10.1-9.7-3.5-17-11.9-19-22.1l-18.1-90.2c-2.8-13.8-15-23.8-29.1-23.8z m-34.9 591.8c-84.7 0-157.6-59.8-174.1-142.9S366.9 381.5 445.2 349c78.2-32.4 168.5-5.1 215.6 65.3 47 70.4 37.9 164.3-22.1 224.2-33.3 33.5-78.4 52.2-125.6 52.1z" fill="#1296db" p-id="2263"></path></svg>