<?xml version="1.0" standalone="no"?>
<!DOCTYPE svg PUBLIC "-//W3C//DTD SVG 1.1//EN" "http://www.w3.org/Graphics/SVG/1.1/DTD/svg11.dtd">
<svg class="icon" width="200px" height="200.00px" viewBox="0 0 1024 1024" version="1.1" xmlns="http://www.w3.org/2000/svg"><path
  fill="#ffffff"
  d="M735.2 792.4H287.6C136.9 792.4 14.2 669.8 14.2 519c0-150.9 122.6-273.5 273.4-273.5h447.6c150.7 0 273.4 122.6 273.4 273.4 0 150.9-122.7 273.5-273.4 273.5zM287.6 300.2c-120.6 0-218.7 98.1-218.7 218.7 0 120.8 98.1 218.9 218.7 218.9h447.6c120.6 0 218.7-98.1 218.7-218.7 0-120.8-98.1-218.9-218.7-218.9H287.6z"/><path fill="#ffffff" d="M724.7 687.1c-92.7 0-168.1-75.4-168.1-168.1S632 350.9 724.7 350.9 892.8 426.3 892.8 519s-75.4 168.1-168.1 168.1z m0-278.6c-60.9 0-110.5 49.6-110.5 110.5s49.5 110.5 110.5 110.5S835.1 579.9 835.1 519s-49.5-110.5-110.4-110.5z"/></svg>
