<?xml version="1.0" standalone="no"?><!DOCTYPE svg PUBLIC "-//W3C//DTD SVG 1.1//EN" "http://www.w3.org/Graphics/SVG/1.1/DTD/svg11.dtd"><svg t="1661246755503" class="icon" viewBox="0 0 1024 1024" version="1.1" xmlns="http://www.w3.org/2000/svg" p-id="1787" xmlns:xlink="http://www.w3.org/1999/xlink" width="200" height="200"><defs><style type="text/css">@font-face { font-family: feedback-iconfont; src: url("//at.alicdn.com/t/font_1031158_u69w8yhxdu.woff2?t=1630033759944") format("woff2"), url("//at.alicdn.com/t/font_1031158_u69w8yhxdu.woff?t=1630033759944") format("woff"), url("//at.alicdn.com/t/font_1031158_u69w8yhxdu.ttf?t=1630033759944") format("truetype"); }
</style></defs><path d="M5.171717 0m62.060606 0l889.535354 0q62.060606 0 62.060606 62.060606l0 144.808081q0 62.060606-62.060606 62.060606l-889.535354 0q-62.060606 0-62.060606-62.060606l0-144.808081q0-62.060606 62.060606-62.060606Z" fill="#1296db" p-id="1788"></path><path d="M67.232323 41.373737a20.686869 20.686869 0 0 0-20.686868 20.686869v144.808081a20.686869 20.686869 0 0 0 20.686868 20.686869h889.535354a20.686869 20.686869 0 0 0 20.686868-20.686869v-144.808081a20.686869 20.686869 0 0 0-20.686868-20.686869h-889.535354m0-41.373737h889.535354a62.060606 62.060606 0 0 1 62.060606 62.060606v144.808081a62.060606 62.060606 0 0 1-62.060606 62.060606h-889.535354a62.060606 62.060606 0 0 1-62.060606-62.060606v-144.808081a62.060606 62.060606 0 0 1 62.060606-62.060606z" fill="#1296db" p-id="1789"></path><path d="M276.831677 341.333333m0 62.060606l0 558.545455q0 62.060606-62.060606 62.060606l-144.808081 0q-62.060606 0-62.060606-62.060606l0-558.545455q0-62.060606 62.060606-62.060606l144.808081 0q62.060606 0 62.060606 62.060606Z" fill="#1296db" p-id="1790"></path><path d="M235.457939 403.393939a20.686869 20.686869 0 0 0-20.686868-20.686868h-144.808081a20.686869 20.686869 0 0 0-20.686869 20.686868v558.545455a20.686869 20.686869 0 0 0 20.686869 20.686869h144.808081a20.686869 20.686869 0 0 0 20.686868-20.686869v-558.545455m41.373738 0v558.545455a62.060606 62.060606 0 0 1-62.060606 62.060606h-144.808081a62.060606 62.060606 0 0 1-62.060606-62.060606v-558.545455a62.060606 62.060606 0 0 1 62.060606-62.060606h144.808081a62.060606 62.060606 0 0 1 62.060606 62.060606z" fill="#1296db" p-id="1791"></path><path d="M1018.828283 341.333333m0 62.060606l0 558.545455q0 62.060606-62.060606 62.060606l-548.739879 0q-62.060606 0-62.060606-62.060606l0-558.545455q0-62.060606 62.060606-62.060606l548.739879 0q62.060606 0 62.060606 62.060606Z" fill="#1296db" p-id="1792"></path><path d="M977.454545 403.393939a20.686869 20.686869 0 0 0-20.686868-20.686868h-548.739879a20.686869 20.686869 0 0 0-20.686869 20.686868v558.545455a20.686869 20.686869 0 0 0 20.686869 20.686869H956.767677a20.686869 20.686869 0 0 0 20.686868-20.686869v-558.545455m41.373738 0v558.545455a62.060606 62.060606 0 0 1-62.060606 62.060606h-548.739879a62.060606 62.060606 0 0 1-62.060606-62.060606v-558.545455a62.060606 62.060606 0 0 1 62.060606-62.060606H956.767677a62.060606 62.060606 0 0 1 62.060606 62.060606z" fill="#1296db" p-id="1793"></path></svg>