<?xml version="1.0" standalone="no"?><!DOCTYPE svg PUBLIC "-//W3C//DTD SVG 1.1//EN" "http://www.w3.org/Graphics/SVG/1.1/DTD/svg11.dtd"><svg t="1660646770682" class="icon" viewBox="0 0 1024 1024" version="1.1" xmlns="http://www.w3.org/2000/svg" p-id="2394" xmlns:xlink="http://www.w3.org/1999/xlink" width="200" height="200"><defs><style type="text/css">@font-face { font-family: feedback-iconfont; src: url("//at.alicdn.com/t/font_1031158_u69w8yhxdu.woff2?t=1630033759944") format("woff2"), url("//at.alicdn.com/t/font_1031158_u69w8yhxdu.woff?t=1630033759944") format("woff"), url("//at.alicdn.com/t/font_1031158_u69w8yhxdu.ttf?t=1630033759944") format("truetype"); }
</style></defs><path d="M892.7 559.5c-26.1 0-41.8 15.7-41.8 41.8v52.2c0 88.8-5.2 156.6-167.1 156.6H349.6c-167.1 0-167.1-73.1-167.1-167.1V434.1C172.1 303.6 234.8 277.5 307.9 267h5.2c26.1 0 41.8-15.7 41.8-41.8s-15.7-41.8-41.8-41.8h-47C177.3 183.5 99 256.6 99 350.6v370.7c0 88.8 73.1 167.1 167.1 167.1h496.1c88.8 0 167.1-73.1 167.1-167.1V596c5.2-15.7-15.7-36.5-36.6-36.5z m-642.3 20.8c0 41.8 10.4 83.5 20.9 120.1 47-135.8 172.3-235 323.7-235v52.2c0 20.9 10.4 41.8 31.3 52.2 10.4 5.2 15.7 10.4 26.1 10.4 10.4 0 26.1-5.2 31.3-10.4l229.8-177.5c10.4-10.4 20.9-31.3 20.9-52.2 0-15.7-10.4-36.6-20.9-47L683.8 115.6c-10.4-10.4-26.1-10.4-36.6-10.4s-15.7 0-26.1 10.4c-20.9 10.4-31.3 31.3-31.3 52.2v57.4c-187.9 0.1-339.4 156.7-339.4 355.1z" fill="#1296db" p-id="2395"></path></svg>