<?xml version="1.0" standalone="no"?><!DOCTYPE svg PUBLIC "-//W3C//DTD SVG 1.1//EN" "http://www.w3.org/Graphics/SVG/1.1/DTD/svg11.dtd"><svg t="1661780904612" class="icon" viewBox="0 0 1024 1024" version="1.1" xmlns="http://www.w3.org/2000/svg" p-id="11479" xmlns:xlink="http://www.w3.org/1999/xlink" width="200" height="200"><path d="M354.304 300.430222c62.008889 56.149333 61.155556 44.032-15.189333 59.392l-15.758223 3.242667-131.072 27.989333-15.701333 3.356445c-76.344889 13.482667-62.407111 20.935111-60.814222-54.727111l1.251555-16.440889c2.56-37.660444 6.826667-99.441778 9.500445-137.216l1.080889-16.497778c4.551111-86.812444 0.227556-67.470222 55.182222-23.267556l35.498667 31.857778 8.931555 8.078222A407.779556 407.779556 0 0 1 495.047111 85.333333C724.309333 85.333333 910.222222 276.252444 910.222222 512c-0.113778 235.576889-185.912889 426.666667-415.175111 426.666667-145.237333 0-273.408-76.856889-347.477333-193.080889a58.026667 58.026667 0 0 1 16.099555-78.848 54.499556 54.499556 0 0 1 76.743111 16.384c54.442667 85.333333 147.911111 141.539556 254.634667 141.539555 168.049778-0.341333 303.900444-140.117333 304.298667-312.718222-0.398222-172.600889-136.192-312.32-304.298667-312.604444-68.835556 0-132.096 23.438222-183.068444 63.089777l42.325333 38.001778z" p-id="11480" fill="#1296db"></path></svg>