<?xml version="1.0" standalone="no"?><!DOCTYPE svg PUBLIC "-//W3C//DTD SVG 1.1//EN" "http://www.w3.org/Graphics/SVG/1.1/DTD/svg11.dtd"><svg t="1667813611352" class="icon" viewBox="0 0 1024 1024" version="1.1" xmlns="http://www.w3.org/2000/svg" p-id="3429" xmlns:xlink="http://www.w3.org/1999/xlink" width="200" height="200"><path d="M853.333333 14.222222a156.444444 156.444444 0 0 1 156.16 146.887111L1009.777778 170.666667v343.722666h-85.333334V170.666667a71.111111 71.111111 0 0 0-63.829333-70.769778L853.333333 99.555556H170.666667a71.111111 71.111111 0 0 0-70.769778 63.829333L99.555556 170.666667v682.666666c0 36.807111 27.989333 67.128889 63.829333 70.769778L170.666667 924.444444h434.744889v85.333334H170.666667a156.444444 156.444444 0 0 1-156.16-146.887111L14.222222 853.333333V170.666667A156.444444 156.444444 0 0 1 161.109333 14.506667L170.666667 14.222222h682.666666z" fill="#1296db" p-id="3430"></path><path d="M964.835556 725.333333v85.333334H568.888889v-85.333334z" fill="#1296db" p-id="3431"></path><path d="M810.666667 966.371556h-85.333334V568.888889h85.333334z" fill="#1296db" p-id="3432"></path><path d="M284.444444 284.444444m28.444445 0l398.222222 0q28.444444 0 28.444445 28.444445l0 0q0 28.444444-28.444445 28.444444l-398.222222 0q-28.444444 0-28.444445-28.444444l0 0q0-28.444444 28.444445-28.444445Z" fill="#1296db" p-id="3433"></path><path d="M284.444444 455.111111m28.444445 0l398.222222 0q28.444444 0 28.444445 28.444445l0 0q0 28.444444-28.444445 28.444444l-398.222222 0q-28.444444 0-28.444445-28.444444l0 0q0-28.444444 28.444445-28.444445Z" fill="#1296db" p-id="3434"></path><path d="M284.444444 625.777778m28.444445 0l170.666667 0q28.444444 0 28.444444 28.444444l0 0q0 28.444444-28.444444 28.444445l-170.666667 0q-28.444444 0-28.444445-28.444445l0 0q0-28.444444 28.444445-28.444444Z" fill="#1296db" p-id="3435"></path></svg>